<svg version="1.1" viewBox="0.0 0.0 614.7191601049868 461.03937007874015" fill="none" stroke="none" stroke-linecap="square" stroke-miterlimit="10" xmlns:xlink="http://www.w3.org/1999/xlink" xmlns="http://www.w3.org/2000/svg"><clipPath id="p.0"><path d="m0 0l614.7192 0l0 461.03937l-614.7192 0l0 -461.03937z" clip-rule="nonzero"/></clipPath><g clip-path="url(#p.0)"><path fill="#000000" fill-opacity="0.0" d="m0 0l614.7192 0l0 461.03937l-614.7192 0z" fill-rule="evenodd"/><path fill="#000000" fill-opacity="0.0" d="m150.1181 173.20473l162.33072 -165.44882" fill-rule="evenodd"/><path stroke="#000000" stroke-width="16.0" stroke-linejoin="round" stroke-linecap="butt" d="m150.1181 173.20473l162.33072 -165.44882" fill-rule="evenodd"/><path fill="#000000" fill-opacity="0.0" d="m308.94226 13.057743l162.80313 158.83466" fill-rule="evenodd"/><path stroke="#000000" stroke-width="16.0" stroke-linejoin="round" stroke-linecap="butt" d="m308.94226 13.057743l162.80313 158.83466" fill-rule="evenodd"/><path fill="#000000" fill-opacity="0.0" d="m8.383203 173.20473l595.5906 0" fill-rule="evenodd"/><path stroke="#000000" stroke-width="16.0" stroke-linejoin="round" stroke-linecap="butt" d="m8.383203 173.20473l595.5906 0" fill-rule="evenodd"/><path fill="#000000" fill-opacity="0.0" d="m81.23622 263.08923l464.56696 0" fill-rule="evenodd"/><path stroke="#000000" stroke-width="16.0" stroke-linejoin="round" stroke-linecap="butt" d="m81.23622 263.08923l464.56696 0" fill-rule="evenodd"/><path fill="#000000" fill-opacity="0.0" d="m154.02887 366.14697l318.96063 0" fill-rule="evenodd"/><path stroke="#000000" stroke-width="16.0" stroke-linejoin="round" stroke-linecap="butt" d="m154.02887 366.14697l318.96063 0" fill-rule="evenodd"/><path fill="#000000" fill-opacity="0.0" d="m236.02887 454.70602l138.96063 0" fill-rule="evenodd"/><path stroke="#000000" stroke-width="16.0" stroke-linejoin="round" stroke-linecap="butt" d="m236.02887 454.70602l138.96063 0" fill-rule="evenodd"/></g></svg>