<svg version="1.1" viewBox="0.0 0.0 760.5905511811023 570.4435695538058" fill="none" stroke="none" stroke-linecap="square" stroke-miterlimit="10" xmlns:xlink="http://www.w3.org/1999/xlink" xmlns="http://www.w3.org/2000/svg"><clipPath id="p.0"><path d="m0 0l760.5906 0l0 570.44354l-760.5906 0l0 -570.44354z" clip-rule="nonzero"/></clipPath><g clip-path="url(#p.0)"><path fill="#000000" fill-opacity="0.0" d="m0 0l760.5906 0l0 570.44354l-760.5906 0z" fill-rule="evenodd"/><path fill="#000000" fill-opacity="0.0" d="m108.708664 195.2021l0 0c0 -96.22801 78.00821 -174.23622 174.23622 -174.23622l0 0c46.210327 0 90.527985 18.356977 123.20361 51.032608c32.67563 32.67563 51.032593 76.993286 51.032593 123.20361l0 0c0 96.22801 -78.00821 174.23622 -174.2362 174.23622l0 0c-96.22801 0 -174.23622 -78.00821 -174.23622 -174.23622z" fill-rule="evenodd"/><path stroke="#000000" stroke-width="24.0" stroke-linejoin="round" stroke-linecap="butt" d="m108.708664 195.2021l0 0c0 -96.22801 78.00821 -174.23622 174.23622 -174.23622l0 0c46.210327 0 90.527985 18.356977 123.20361 51.032608c32.67563 32.67563 51.032593 76.993286 51.032593 123.20361l0 0c0 96.22801 -78.00821 174.23622 -174.2362 174.23622l0 0c-96.22801 0 -174.23622 -78.00821 -174.23622 -174.23622z" fill-rule="evenodd"/><path fill="#000000" fill-opacity="0.0" d="m406.1485 318.4057l245.88977 245.88977" fill-rule="evenodd"/><path stroke="#000000" stroke-width="24.0" stroke-linejoin="round" stroke-linecap="butt" d="m406.1485 318.4057l245.88977 245.88977" fill-rule="evenodd"/></g></svg>